<svg xmlns="http://www.w3.org/2000/svg" viewBox="0 0 1080 366.29" role="img" aria-label="Gezgah">
  <path fill="currentColor" d="M175.86,316.17c-6.95,0-13.59-.79-19.91-2.37-6.32-1.58-12.54-4.26-18.64-8.06-6.12-3.8-12.44-8.74-18.97-14.86l8.85-10.11c9.06,8.64,17.49,14.49,25.28,17.54,7.79,3.05,15.38,4.58,22.76,4.58,12.85,0,23.07-2.05,30.66-6.17,7.59-4.1,13.06-9.59,16.43-16.43,3.37-6.84,5.16-14.49,5.37-22.91l.31-40.14,3.48,3.8c-4.22,10.96-11.75,19.91-22.6,26.87-10.85,6.95-23.12,10.43-36.82,10.43-11.59,0-22.17-2.89-31.76-8.7-9.59-5.79-17.23-13.59-22.91-23.38-5.69-9.8-8.54-20.7-8.54-32.71,0-12.85,2.95-24.13,8.85-33.82,5.9-9.69,13.91-17.33,24.02-22.91,10.11-5.58,21.28-8.38,33.5-8.38,11.38,0,22.17,2.95,32.4,8.85,10.21,5.9,17.64,13.7,22.28,23.39l-1.9,6.95,1.58-35.4h13.28v125.47c0,10.11-2.27,19.64-6.79,28.6-4.53,8.96-11.69,16.17-21.49,21.65-9.8,5.49-22.7,8.22-38.71,8.22M123.71,193.23c0,9.69,2.32,18.48,6.95,26.39,4.63,7.9,10.9,14.22,18.81,18.96,7.9,4.74,16.69,7.11,26.39,7.11s17.7-2.05,25.28-6.16c7.59-4.11,13.8-9.64,18.65-16.59,4.84-6.96,7.59-14.43,8.21-22.44v-18.32c-1.68-8.01-5-15.07-9.95-21.18-4.95-6.11-11.06-10.95-18.33-14.54-7.27-3.58-15.22-5.37-23.86-5.37-9.69,0-18.49,2.21-26.39,6.64-7.9,4.42-14.17,10.54-18.81,18.33-4.63,7.8-6.95,16.86-6.95,27.18"/>
  <path fill="currentColor" d="M327.38,258.33c-12.86,0-24.23-2.85-34.13-8.53-9.91-5.7-17.65-13.44-23.23-23.23-5.58-9.8-8.38-20.8-8.38-33.03s2.95-22.96,8.85-32.87c5.9-9.9,13.85-17.8,23.86-23.7,10.01-5.9,21.12-8.85,33.35-8.85,14.74,0,27.12,4.32,37.13,12.96,10.01,8.64,17.23,19.91,21.65,33.81l-108.09,41.72-4.42-10.74,98.92-38.55-3.16,4.42c-3.58-8.42-9.01-15.7-16.28-21.81-7.27-6.11-16.17-9.17-26.71-9.17-9.48,0-18.02,2.33-25.6,6.95-7.59,4.64-13.64,10.86-18.17,18.65-4.53,7.8-6.79,16.65-6.79,26.55,0,9.27,2.16,17.91,6.48,25.92,4.32,8.01,10.38,14.43,18.18,19.27,7.79,4.86,16.75,7.27,26.87,7.27,6.74,0,13.22-1.27,19.43-3.79,6.21-2.53,11.74-5.8,16.59-9.8l7.58,10.74c-5.9,4.63-12.69,8.43-20.38,11.38-7.7,2.95-15.54,4.43-23.55,4.43"/>
  <path fill="currentColor" d="M415.13,148.61c-5.48,0-10.01-1.32-13.59-3.95-3.58-2.63-5.37-7.31-5.37-14.06v-6h11.69v3.79c0,2.53.89,4.48,2.69,5.85,1.79,1.37,4.47,2.05,8.06,2.05h79.96l-80.27,114.09-3.16-3.16h82.17v12.64h-102.08l81.22-115.36,3.16,4.11h-64.48Z"/>
  <path fill="currentColor" d="M592.94,317.89c-9.7,0-18.23-1.11-25.6-3.32-7.38-2.22-14.06-5.33-20.07-9.33-6-4-11.75-8.53-17.23-13.58l17.07-19.92c6.95,6.53,14.01,11.59,21.18,15.17,7.16,3.59,15.17,5.38,24.02,5.38,9.91,0,18.28-1.64,25.13-4.9,6.84-3.26,12.06-7.8,15.64-13.59,3.58-5.79,5.37-12.47,5.37-20.06l.31-35.4,2.53,5.69c-3.8,9.06-10.64,16.71-20.54,22.92-9.91,6.21-21.92,9.32-36.03,9.32-12.01,0-23.02-3.05-33.03-9.17-10.01-6.1-18.02-14.38-24.02-24.81-6.01-10.43-9.01-22.17-9.01-35.24s3.16-25.76,9.48-36.19c6.32-10.43,14.64-18.7,24.97-24.81,10.32-6.1,21.59-9.16,33.82-9.16,11.58,0,22.17,2.37,31.76,7.11,9.59,4.74,16.59,10.8,21.02,18.18l-1.58,5.37,3.16-25.28h26.87v131.8c0,11.79-3.06,22.54-9.17,32.23-6.11,9.69-14.75,17.38-25.92,23.08-11.17,5.68-24.55,8.53-40.14,8.53M548.05,186.41c0,8.43,2,16.12,6,23.07,4,6.96,9.43,12.44,16.28,16.44,6.84,4,14.48,6,22.91,6,7.79,0,14.8-1.42,21.02-4.27,6.22-2.85,11.42-6.74,15.64-11.69,4.21-4.95,7.16-10.69,8.85-17.23v-25.92c-1.9-6.32-5.05-11.85-9.48-16.59-4.42-4.74-9.69-8.42-15.8-11.06-6.12-2.63-12.86-3.95-20.23-3.95-8.43,0-16.07,1.9-22.91,5.69-6.85,3.79-12.28,9.11-16.28,15.96-4.01,6.85-6,14.7-6,23.55"/>
  <path fill="currentColor" d="M748.11,258.97c-12.23,0-23.34-2.64-33.35-7.9-10.01-5.27-17.91-13.01-23.7-23.23-5.8-10.22-8.69-22.7-8.69-37.46s3.05-27.12,9.16-37.76c6.11-10.64,14.27-18.81,24.5-24.49,10.22-5.69,21.44-8.54,33.66-8.54s22.54,2.79,30.97,8.38c8.42,5.58,14.85,12.17,19.27,19.75l-1.89,5.06,2.84-27.82h27.18v130.84h-29.39v-34.13l3.16,7.58c-.84,2.11-2.69,4.8-5.53,8.06-2.84,3.26-6.64,6.58-11.38,9.95-4.74,3.38-10.17,6.16-16.27,8.38-6.12,2.21-12.96,3.32-20.54,3.32M756.01,234.63c7.37,0,14.01-1.36,19.91-4.1,5.89-2.74,10.79-6.59,14.7-11.54,3.89-4.95,6.58-10.91,8.05-17.86v-25.6c-1.68-6.32-4.63-11.85-8.85-16.59-4.21-4.74-9.27-8.42-15.17-11.06-5.9-2.63-12.44-3.95-19.6-3.95-7.79,0-14.96,1.9-21.49,5.69-6.53,3.8-11.74,9.06-15.64,15.8-3.9,6.75-5.84,14.65-5.84,23.7,0,8.43,2,16.12,6,23.07,4,6.95,9.37,12.44,16.12,16.43,6.74,4.01,14.01,6,21.81,6"/>
  <path fill="currentColor" d="M847.57,253.1V48.41h28.76v104.18l-.63-5.37c4.43-8.64,11.22-15.8,20.38-21.49,9.16-5.69,19.96-8.54,32.39-8.54s22.6,3.64,30.5,10.9c7.9,7.27,11.95,16.71,12.17,28.29v96.71h-29.71v-86.28c-.21-7.16-2.27-13.01-6.17-17.54-3.9-4.53-9.95-6.79-18.17-6.79-7.59,0-14.44,2.17-20.54,6.48-6.12,4.32-10.9,10.17-14.38,17.54-3.48,7.38-5.22,15.8-5.22,25.28v61.32h-29.39Z"/>
</svg>
